<?xml version="1.0" encoding="utf-8"?>
<svg width="16" height="15" viewBox="0 0 16 15" fill="none" xmlns="http://www.w3.org/2000/svg">
  <path d="M1.89729 3.62461C1.91717 3.41698 1.84227 3.21175 1.69561 3.07201L0.201681 1.16945V0.885254H4.84034L8.42577 9.19807L11.578 0.885254H16V1.16945L14.7227 2.46414C14.6126 2.55287 14.5579 2.69872 14.5808 2.84307V12.3558C14.5579 12.5002 14.6126 12.646 14.7227 12.7348L15.9701 14.0294V14.3136H9.69561V14.0294L10.9879 12.7032C11.1148 12.569 11.1148 12.5295 11.1148 12.3243V4.6351L7.52194 14.2821H7.03641L2.85341 4.6351V11.1006C2.81853 11.3725 2.90393 11.6461 3.08497 11.8427L4.76564 13.9979V14.2821H0V13.9979L1.68067 11.8427C1.86039 11.6458 1.94081 11.3703 1.89729 11.1006V3.62461Z" fill="white"/>
</svg>