<svg xmlns="http://www.w3.org/2000/svg" viewBox="0 0 144.79 130.92"><defs><style>.cls-1{fill:#49cfde;}</style></defs><g id="Layer_2" data-name="Layer 2"><g id="Layer_1-2" data-name="Layer 1"><path class="cls-1" d="M82.84,0H65.49A13.93,13.93,0,0,0,52.7,8.42L0,130.92H26.37a11.85,11.85,0,0,0,7-2,11.19,11.19,0,0,0,3.94-4.54l8.59-22.82L63.31,56.73a10.87,10.87,0,0,1,20.24-.06l17.72,44.87,8.59,22.82a11.93,11.93,0,0,0,4.09,4.72,12.33,12.33,0,0,0,7.09,1.84l23.75-.49L94.06,7.39A12.21,12.21,0,0,0,82.84,0Z"/><path class="cls-1" d="M79.81,104.42a11,11,0,1,0-11.67.24l-6.68,26.2,12.32-.09,12.53.09Z"/></g></g></svg>